PathFileType	4	(X/Y/Z)	SUBJ24_1_walk_RCNL2025.trc
DataRate	CameraRate	NumFrames	NumMarkers	Units	OrigDataRate	OrigDataStartFrame	OrigNumFrames
100	100	6	25	mm	100	210	335
Frame#	Time	R_Shoulder			L_Shoulder			C7			J_Notch			R_Elbow			L_Elbow			R_Wrist			L_Wrist			R_Asis			L_Asis			Sacral			Thoracic			Sternum			R_Thigh_Lateral			R_Knee_Lateral			R_Shank_Lateral			R_Ankle_Lateral			R_Heel			R_Toe			L_Thigh_Lateral			L_Knee_Lateral			L_Shank_Lateral			L_Ankle_Lateral			L_Heel			L_Toe		
		X1	Y1	Z1	X2	Y2	Z2	X3	Y3	Z3	X4	Y4	Z4	X5	Y5	Z5	X6	Y6	Z6	X7	Y7	Z7	X8	Y8	Z8	X9	Y9	Z9	X10	Y10	Z10	X11	Y11	Z11	X12	Y12	Z12	X13	Y13	Z13	X14	Y14	Z14	X15	Y15	Z15	X16	Y16	Z16	X17	Y17	Z17	X18	Y18	Z18	X19	Y19	Z19	X20	Y20	Z20	X21	Y21	Z21	X22	Y22	Z22	X23	Y23	Z23	X24	Y24	Z24	X25	Y25	Z25
210	2.09000000	-208.899170	1324.442627	392.325531	-248.953918	1330.823242	48.916954	-309.629089	1390.225586	228.547287	-178.117065	1297.919678	215.355347	-216.319275	1041.978394	491.203979	-279.679443	1038.306274	-35.031002	-122.851288	824.298096	468.289230	-203.674515	814.719147	-24.561956	-195.758728	883.324585	387.027924	-205.465820	886.069275	58.781647	-375.060059	926.326782	233.353607	-376.033112	1120.759644	231.025787	-104.116600	1083.896118	209.459091	-215.566772	571.695190	430.360870	-128.512344	447.847748	368.631775	-232.719208	350.199829	409.127808	-399.828156	190.090775	328.053131	-443.678833	202.748001	263.656342	-336.205200	78.606766	329.271912	-217.211212	571.379578	52.904720	-195.378342	443.420441	116.724289	-214.702484	285.270020	74.044090	-241.164413	63.331657	150.410706	-288.671326	38.194168	207.568054	-122.866844	45.267059	177.418518
211	2.10000000	-198.028763	1325.337524	392.164520	-236.649002	1332.778442	48.683537	-297.846283	1391.418823	228.081009	-166.401962	1298.986084	215.229218	-208.799255	1042.859985	491.201508	-262.917969	1040.512451	-37.361614	-119.316975	823.528992	468.299957	-178.917343	819.686432	-26.635160	-183.281967	885.378540	386.480103	-195.120926	886.735168	58.465092	-363.693329	927.576721	233.673798	-364.564606	1121.970581	229.704361	-92.839348	1085.110718	209.218613	-196.767029	573.856628	430.331360	-107.123085	451.714661	368.064087	-206.853088	349.207855	408.779358	-367.278290	182.184509	327.942352	-412.478058	192.088379	263.741638	-296.804993	75.292328	329.387878	-212.356506	571.730591	53.108143	-192.885681	443.361603	116.818169	-213.695648	285.317749	74.046494	-241.080292	63.430676	150.504974	-288.675018	38.320869	207.617538	-122.834351	45.249279	177.382980
212	2.11000000	-187.133835	1325.961304	391.984192	-224.308670	1334.427490	48.454342	-286.056946	1392.329834	227.577179	-154.671829	1299.785400	215.091019	-201.371323	1043.520752	491.197174	-246.204239	1042.528442	-39.736053	-115.790985	822.649963	468.282120	-154.252800	824.807098	-28.602844	-170.666763	887.059082	385.873627	-184.838943	887.147888	58.155960	-352.329742	928.579773	234.179626	-353.108368	1122.937500	228.448410	-81.550766	1086.064941	208.954391	-178.387268	575.814941	430.289124	-86.520164	455.329712	367.361786	-181.150726	347.736084	408.400513	-333.892914	173.436401	327.927307	-380.195465	180.363693	263.900940	-256.606628	71.699303	329.608093	-207.658340	571.968445	53.403687	-190.333374	443.290070	116.913025	-212.692673	285.384674	74.038246	-240.985794	63.552193	150.612732	-288.683563	38.457932	207.680374	-122.797676	45.237663	177.323853
213	2.12000000	-176.195465	1326.298340	391.800018	-211.928406	1335.733887	48.231602	-274.246704	1392.954834	227.047577	-142.917786	1300.311157	214.938507	-193.997604	1043.947632	491.176666	-229.526932	1044.314087	-42.125851	-112.245384	821.629120	468.235565	-129.736660	830.022461	-30.468564	-157.930649	888.345459	385.212158	-174.630096	887.287659	57.846775	-340.964783	929.330872	234.842255	-341.657410	1123.665039	227.282196	-70.229561	1086.737793	208.673340	-160.410339	577.560974	430.248840	-66.751953	458.612030	366.526306	-155.654327	345.826172	407.987244	-299.654388	164.043839	328.013489	-346.753906	167.796875	264.118103	-215.734406	68.008553	329.986877	-203.026382	572.130615	53.741528	-187.690262	443.208344	116.998306	-211.665497	285.469269	74.006836	-240.885605	63.694382	150.727646	-288.692383	38.605156	207.755615	-122.758720	45.230171	177.239563
214	2.13000000	-165.187973	1326.343140	391.621460	-199.505920	1336.672974	48.018299	-262.403015	1393.296875	226.507812	-131.131454	1300.559937	214.772079	-186.635208	1044.132812	491.124603	-212.876907	1045.846802	-44.500996	-108.654465	820.445435	468.160004	-105.424049	835.275085	-32.237573	-145.098267	889.223267	384.507721	-164.498886	887.152710	57.536427	-329.592957	929.825073	235.633118	-330.192322	1124.152710	226.225159	-58.863277	1087.108521	208.385361	-142.831863	579.092529	430.221283	-47.858898	461.481964	365.559845	-130.413651	343.544525	407.538116	-264.557007	154.222336	328.209564	-312.107819	154.643356	264.388733	-174.303375	64.401711	330.549011	-198.367004	572.243347	54.069187	-184.916000	443.116058	117.062386	-210.586929	285.568604	73.940849	-240.786392	63.850681	150.840012	-288.693542	38.761890	207.841309	-122.719223	45.220680	177.130951
215	2.14000000	-154.083359	1326.100098	391.452820	-187.041824	1337.234497	47.819275	-250.516174	1393.365234	225.976715	-119.306046	1300.530396	214.594757	-179.238541	1044.073242	491.022156	-196.245712	1047.119995	-46.829994	-104.994869	819.088440	468.055801	-81.362125	840.512360	-33.915789	-132.208618	889.682739	383.781860	-154.440735	886.759521	57.227875	-318.206665	930.057129	236.526077	-318.684814	1124.389893	225.295624	-47.448524	1087.158325	208.100845	-125.670013	580.398621	430.202728	-29.873045	463.869324	364.468475	-105.485069	340.970795	407.055603	-228.617508	144.206619	328.522491	-276.253845	141.187164	264.713745	-132.422058	61.071129	331.292389	-193.583618	572.319153	54.341663	-181.962524	443.008179	117.093010	-209.427444	285.676056	73.831566	-240.694275	64.011078	150.939514	-288.679626	38.928249	207.933914	-122.681419	45.200207	177.001541
